<?xml version="1.0" standalone="no"?>
<!DOCTYPE svg PUBLIC "-//W3C//DTD SVG 20010904//EN"
 "http://www.w3.org/TR/2001/REC-SVG-20010904/DTD/svg10.dtd">
<svg version="1.0" xmlns="http://www.w3.org/2000/svg"
 width="352.000000pt" height="352.000000pt" viewBox="0 0 352.000000 352.000000"
 preserveAspectRatio="xMidYMid meet">
<metadata>
Created by potrace 1.16, written by Peter Selinger 2001-2019
</metadata>
<g transform="translate(0.000000,352.000000) scale(0.100000,-0.100000)"
fill="#000000" stroke="none">
<path d="M1645 3493 c-674 -54 -1256 -503 -1487 -1148 -237 -660 -67 -1390
438 -1875 146 -140 278 -231 454 -313 240 -113 397 -149 670 -155 214 -4 359
13 535 64 110 32 290 108 383 163 280 164 533 439 677 736 208 427 239 897 90
1350 -38 117 -155 346 -232 455 -87 123 -292 327 -413 412 -327 230 -729 342
-1115 311z m-955 -1293 c0 -3 -16 -18 -36 -34 l-36 -28 24 -25 c30 -32 53 -44
71 -37 18 7 18 64 0 64 -7 0 -13 5 -13 10 0 7 24 10 63 8 l62 -3 3 -37 c2 -21
7 -38 13 -38 5 0 9 -4 9 -10 0 -5 -11 -10 -25 -10 -23 0 -25 4 -25 41 0 36 -2
40 -22 37 -17 -2 -24 -11 -26 -30 -2 -16 1 -28 7 -28 6 0 11 -4 11 -10 0 -6
-32 -10 -76 -10 -61 0 -75 3 -71 14 3 8 -5 24 -19 37 l-24 22 0 -23 c0 -12 8
-29 18 -36 15 -12 12 -13 -28 -13 -39 0 -43 1 -28 12 20 16 21 107 1 107 -7 0
-13 5 -13 10 0 6 19 10 43 10 37 -1 40 -2 25 -14 -18 -14 -25 -46 -10 -46 12
0 43 35 41 46 -1 5 -1 11 0 14 1 7 61 7 61 0z m1062 -42 c-7 -7 -12 -29 -12
-51 0 -51 -13 -73 -48 -80 -34 -7 -72 1 -72 15 0 6 11 7 26 4 31 -8 64 1 64
17 0 7 -16 12 -42 12 -35 0 -45 4 -57 27 -14 24 -14 28 3 47 16 17 31 21 85
21 50 0 62 -3 53 -12z m939 -309 c25 -162 107 -240 193 -184 45 30 96 168 96
260 0 19 4 35 9 35 8 0 21 -748 14 -759 -7 -10 -13 9 -28 84 -21 99 -59 173
-104 199 -34 19 -34 19 -70 0 -45 -24 -82 -96 -106 -205 -9 -44 -18 -79 -20
-77 -2 2 -6 190 -9 418 -3 284 -2 396 5 355 5 -33 14 -90 20 -126z m-71 135
c0 -7 -6 -11 -14 -8 -22 8 -76 -24 -86 -51 -5 -14 -8 -136 -7 -272 2 -220 0
-253 -16 -288 -45 -100 -133 -148 -272 -148 -138 -1 -219 42 -262 138 -14 34
-18 82 -23 306 -4 193 -8 270 -18 281 -7 9 -31 18 -53 22 -22 4 -37 11 -34 16
8 14 395 13 395 0 0 -5 -16 -10 -35 -10 -22 0 -43 -8 -57 -22 -21 -21 -21 -23
-14 -296 7 -294 10 -310 61 -350 83 -66 237 -13 266 91 8 28 11 125 10 282 -2
261 -6 279 -59 291 -58 13 -54 19 18 24 144 10 200 8 200 -6z m-840 -7 c0 -9
-10 -14 -26 -14 -14 0 -37 -6 -50 -13 l-24 -13 0 -321 c0 -362 0 -361 71 -372
90 -15 27 -24 -162 -24 -131 0 -198 3 -194 10 3 6 19 10 36 10 16 0 38 9 50
21 22 22 22 23 15 343 -7 314 -8 321 -29 338 -12 10 -37 18 -54 18 -18 0 -33
4 -33 10 0 5 48 11 110 12 60 2 150 4 200 6 73 3 90 1 90 -11z m-733 -18 c67
-13 162 -75 201 -131 49 -72 66 -132 65 -238 0 -205 -96 -322 -298 -365 -83
-17 -465 -22 -465 -5 0 6 16 10 35 10 22 0 43 8 57 22 21 21 21 23 15 342 -5
315 -6 321 -27 338 -12 10 -35 18 -51 18 -16 0 -29 4 -29 10 0 6 64 11 158 13
179 4 265 0 339 -14z m1832 -105 c61 -78 -30 -194 -96 -121 -26 29 -34 63 -22
95 22 56 83 70 118 26z"/>
<path d="M840 1612 c0 -363 -2 -355 74 -354 115 3 174 74 197 238 12 85 0 207
-27 287 -32 95 -104 147 -203 147 l-41 0 0 -318z"/>
</g>
</svg>
